<svg id="Layer_2" data-name="Layer 2" xmlns="http://www.w3.org/2000/svg" width="1920" height="979.3856" viewBox="0 0 1920 979.3856"><defs><style>.cls-1{fill:#fff;}.cls-2{fill:#e7e1df;}.cls-3{fill:#e1dddc;}</style></defs><path class="cls-1" d="M1440.6809,409.9574" transform="translate(0 0.1928)"/><path class="cls-2" d="M535.2427,978.6394c-192.3769-143.01-315.37-361.6335-315.37-606.6381,0-130.8219,22.3738-262.0524,97.0381-362.406L1816.0789,0c65.4458,110.5716,102.6232,237.2993,102.6232,372.0013,0,245.3209-123.3105,464.1923-316.1149,607.1915" transform="translate(0 0.1928)"/><path class="cls-3" d="M1813.3371,687.2867c-97.84-164.5081-241.0514-278.8831-382.4477-321.4073-158.5009-51.32-255.8591-88.5459-370.608-191.6419-60.02-53.9248-109.7266-113.2344-148.3077-174.43H0v979H1046.9061l.0012.0028L1920,979.1928C1909.3213,888.67,1873.9447,789.1925,1813.3371,687.2867Z" transform="translate(0 0.1928)"/></svg>